<?xml version="1.0" encoding="UTF-8"?>
<svg id="Layer_1" xmlns="http://www.w3.org/2000/svg" version="1.1" viewBox="0 0 3000 940">
  <!-- Generator: Adobe Illustrator 30.8.1, SVG Export Plug-In . SVG Version: 2.1.4 Build 1)  -->
  <defs>
    <style>
      .st0 {
        fill: #f5f3ef;
      }

      .st1 {
        fill: #b65a2a;
      }
    </style>
  </defs>
  <path class="st0" d="M977.107,485.25c153.587,0,240.128-70.493,240.128-182.433,0-55.97-26.938-106.595-68.585-137.157-52.337-36.107-104.683-46.041-212.994-46.041-30.753,0-83.099,2.677-99.329,2.677-90.365,0-122.834-2.677-133.533-2.677-3.628,0-5.541,1.721-5.541,7.07v22.731c0,4.393,1.912,6.305,5.541,6.305h46.806c19.868,0,29.792,4.393,31.704,19.868.765,9.929.765,105.634.765,165.237v104.683c0,104.683-1.716,245.473-2.677,254.642-2.668,24.261-9.925,27.889-40.491,27.889h-29.037c-5.354,0-5.354,1.716-5.354,7.257v22.545c0,2.672,0,6.301,7.266,6.301,8.973,0,45.08-2.672,124.551-2.672,97.417,0,126.453,2.672,139.064,2.672,7.257,0,7.257-3.628,7.257-8.978v-20.819c0-2.677,0-6.305-7.257-6.305h-50.621c-16.239,0-25.222-8.982-27.889-28.845-.961-11.846-.961-134.484-.961-177.848v-39.735c23.496,3.633,50.621,3.633,81.187,3.633ZM895.92,156.678c14.523-7.257,36.107-6.492,52.346-6.492,43.364,0,142.702,28.081,142.702,150.91,0,32.474-3.638,66.669-21.78,93.798-21.593,30.753-68.585,61.506-108.321,61.506-23.487,0-48.708-1.907-64.948-7.257V156.678Z"/>
  <path class="st0" d="M1817.63,575.414l-16.239-5.349c-5.531-1.721-7.257,0-10.885,3.628-12.602,34.195-70.488,142.697-120.922,149.768-36.098,4.584-101.241,4.584-151.675,4.584h-50.621c-3.628-38.779-3.628-233.818-3.628-250.057v-77.75c0-63.036,3.628-198.476,3.628-211.082,0-24.452,3.628-33.43,30.753-33.43h48.718c7.257,0,8.973-3.633,8.973-7.261v-20.824c0-4.393-1.716-8.022-8.973-8.022s-45.08,2.677-142.702,2.677c-83.099,0-115.568-2.677-124.551-2.677-5.345,0-7.257,1.721-7.257,7.07v20.819c0,2.677,1.912,8.218,7.257,8.218h38.019c23.3,0,26.929,8.978,28.841,32.474,1.726,15.283,3.628,110.984,3.628,168.87v50.429c0,54.254-3.628,279.854-3.628,296.093,0,11.841-5.541,24.452-38.01,24.452h-36.107c-5.345,0-5.345,1.716-5.345,7.257v20.633c0,6.492,0,8.213,7.257,8.213,10.699,0,43.364-2.672,124.551-2.672,92.072,0,352.059,1.716,375.555,2.672,5.354-24.452,41.452-174.215,45.089-179.565,0-5.541,0-7.261-1.726-9.169Z"/>
  <path class="st0" d="M2539.722,483.338c-8.982,0-39.735,2.677-115.578,2.677-73.921,0-117.285-2.677-128.179-2.677-3.628,0-5.345,1.912-5.345,7.257v20.824c0,4.393,1.716,8.026,7.257,8.026h37.823c23.496,0,32.479,9.169,32.479,41.643v65.904c0,46.801-1.726,72.209-21.593,82.903-30.753,16.43-64.948,23.496-122.825,23.496s-101.055-19.863-144.418-61.319c-52.337-52.337-81.187-144.414-81.187-251.009,0-79.466,30.566-155.308,73.93-204.017,48.708-55.975,97.613-70.302,153.587-70.302,68.576,0,119.197,30.566,149.763,63.04,36.107,38.014,59.603,88.448,72.205,124.551,1.912,5.541,3.638,8.213,9.178,7.261l21.584-3.628c3.628-.765,3.628-5.354,3.628-12.611l-8.982-180.521c0-7.261-1.903-12.606-10.885-12.606-5.345,0-8.218,2.672-12.611,8.973l-10.885,14.523c-5.354,7.257-10.895,9.934-21.584,1.716-29.037-21.584-97.622-48.708-184.35-48.708-108.311,0-191.215,30.753-256.358,88.444-66.664,57.882-102.771,144.418-102.771,227.513,0,106.595,26.938,184.154,82.903,245.664,61.515,73.925,171.543,104.683,259.996,104.683,108.311,0,182.428-21.78,256.545-59.603,8.982-3.628,14.327-7.257,14.327-14.514s-3.628-16.239-3.628-28.85v-119.197c0-26.173,10.885-33.43,27.124-33.43h30.753c5.354,0,7.266-1.721,7.266-7.261v-22.54c0-4.393-1.912-6.305-9.169-6.305Z"/>
  <polygon class="st1" points="2946.293 .154 2936.669 .154 2934.184 9.447 2689.205 924.064 2684.974 939.846 2701.314 939.846 2738.676 939.846 2748.299 939.846 2750.785 930.553 2995.77 15.936 3000 .154 2983.661 .154 2946.293 .154"/>
  <path class="st0" d="M607.189,126.826c-.972-4.226-4.724-7.207-9.06-7.207h-72.174s-33.13,0-33.13,0H209.585s-124.828.149-156.935.052c-4.333-.013-8.057,2.951-9.044,7.169C34.654,165.097,3.364,294.242,0,299.38c0,5.345,0,7.066,1.912,8.978l16.239,5.349c5.345,1.907,7.257,0,10.885-3.628,9.804-26.626,47.025-98.129,86.933-131.87,7.546-6.38,16.705-10.583,26.45-12.221.283-.048.566-.094.851-.141,3.628-.569,7.453-1.143,11.268-1.525.196-.191.392,0,.392,0,33.234-4.202,69.527-4.202,89.209-4.202h25.408v225.792c0,17.956,0,294.377-2.873,317.682-.765,13.562-11.65,24.452-29.801,24.452h-51.385c-3.628,0-6.305,1.716-6.305,7.257v20.633c0,6.492,1.726,8.213,7.266,8.213,12.602,0,50.425-2.672,142.506-2.672,97.613,0,126.453,2.672,135.436,2.672,7.257,0,9.169-3.628,9.169-8.978v-18.912c0-4.584-1.912-8.213-5.541-8.213h-52.337c-21.593,0-30.762-18.151-30.762-86.727V160.12h25.408c15.857,0,43.364.382,70.302,2.672h.951c8.404.765,16.808,1.53,24.839,2.672h0c9.815,1.366,19.199,5.167,26.858,11.455,40.426,33.186,78.503,106.091,88.514,133.16,3.638,3.628,5.354,5.536,10.895,3.628l16.239-5.349c1.716-1.912,1.716-3.633,1.716-8.978-3.365-5.138-34.663-134.318-43.453-172.554Z"/>
</svg>